<?xml version="1.0" encoding="UTF-8"?>
<svg 
	version="1.1" 
	xmlns="http://www.w3.org/2000/svg" 
	xmlns:xlink="http://www.w3.org/1999/xlink"
	x="0"
	y="0"
	viewBox="0 0 72 72" 
	style="enable-background:new 0 0 72 72;" 
	xml:space="preserve" 
	width="" 
	height="" 
>
        <path d="M36,72 C55.9,72 72,55.9 72,36 C72,16.1 55.9,0 36,0 C16.1,0 0,16.1 0,36 C0,55.9 16.1,72 36,72 Z M36,8 C51.4,8 64,20.6 64,36 C64,51.4 51.4,64 36,64 C20.6,64 8,51.4 8,36 C8,20.6 20.6,8 36,8 Z" id="Shape" fill="#FFFFFF" fill-rule="nonzero"></path>
        <path d="M26,51.7 C26.3,51.9 26.7,52 27,52 C27.3,52 27.7,51.9 28,51.7 L52,37.7 C52.6,37.3 53,36.7 53,36 C53,35.3 52.6,34.6 52,34.3 L28,20.3 C27.4,19.9 26.6,19.9 26,20.3 C25.4,20.7 25,21.3 25,22 L25,50 C25,50.7 25.4,51.4 26,51.7 Z" id="Shape" fill="#FFFFFF" fill-rule="nonzero"></path>
</svg>